<svg xmlns="http://www.w3.org/2000/svg" xmlns:xlink="http://www.w3.org/1999/xlink" width="50" zoomAndPan="magnify" viewBox="0 0 1440 809.999993" height="1080" preserveAspectRatio="xMidYMid meet" version="1.0"><defs><clipPath id="a5abad1313"><path d="M 588.171875 243 L 852 243 L 852 567 L 588.171875 567 Z M 588.171875 243 " clip-rule="nonzero"/></clipPath></defs><g clip-path="url(#a5abad1313)"><path fill="#0c4a6e" d="M 591.246094 428.46875 C 649.628906 410.929688 662.304688 377.480469 676.566406 316.46875 C 676.675781 316.003906 676.859375 315.570312 677.113281 315.167969 C 677.367188 314.765625 677.683594 314.417969 678.054688 314.121094 C 678.429688 313.824219 678.839844 313.597656 679.292969 313.4375 C 679.742188 313.28125 680.207031 313.203125 680.683594 313.203125 C 681.160156 313.203125 681.625 313.28125 682.074219 313.4375 C 682.523438 313.597656 682.9375 313.824219 683.308594 314.121094 C 683.683594 314.417969 683.996094 314.765625 684.253906 315.167969 C 684.507812 315.570312 684.6875 316.003906 684.796875 316.46875 C 699.054688 377.480469 711.734375 410.929688 770.121094 428.46875 C 770.554688 428.601562 770.957031 428.796875 771.332031 429.058594 C 771.703125 429.316406 772.023438 429.628906 772.296875 429.996094 C 772.566406 430.359375 772.773438 430.757812 772.917969 431.1875 C 773.058594 431.621094 773.128906 432.0625 773.128906 432.515625 C 773.128906 432.972656 773.058594 433.414062 772.917969 433.84375 C 772.773438 434.277344 772.566406 434.675781 772.296875 435.039062 C 772.023438 435.402344 771.703125 435.714844 771.332031 435.976562 C 770.957031 436.238281 770.554688 436.433594 770.121094 436.5625 C 711.726562 454.113281 699.035156 487.5625 684.777344 548.570312 C 684.667969 549.035156 684.488281 549.46875 684.234375 549.871094 C 683.976562 550.273438 683.664062 550.625 683.289062 550.921875 C 682.917969 551.21875 682.503906 551.445312 682.054688 551.601562 C 681.605469 551.757812 681.140625 551.835938 680.664062 551.835938 C 680.1875 551.835938 679.722656 551.757812 679.273438 551.601562 C 678.820312 551.445312 678.410156 551.21875 678.035156 550.921875 C 677.664062 550.625 677.347656 550.273438 677.09375 549.871094 C 676.839844 549.46875 676.65625 549.035156 676.546875 548.570312 C 662.292969 487.5625 649.609375 454.113281 591.226562 436.570312 C 590.789062 436.441406 590.386719 436.242188 590.011719 435.980469 C 589.640625 435.722656 589.316406 435.40625 589.046875 435.042969 C 588.773438 434.675781 588.570312 434.277344 588.425781 433.84375 C 588.285156 433.414062 588.214844 432.96875 588.214844 432.511719 C 588.214844 432.058594 588.289062 431.613281 588.433594 431.183594 C 588.578125 430.75 588.785156 430.351562 589.058594 429.988281 C 589.332031 429.625 589.65625 429.3125 590.03125 429.054688 C 590.402344 428.792969 590.808594 428.597656 591.246094 428.46875 Z M 763.1875 305.050781 C 787.808594 314.085938 795.351562 329.734375 801.988281 355.992188 C 802.105469 356.445312 802.292969 356.867188 802.550781 357.261719 C 802.804688 357.652344 803.121094 357.992188 803.492188 358.277344 C 803.863281 358.566406 804.269531 358.785156 804.710938 358.9375 C 805.15625 359.089844 805.613281 359.164062 806.082031 359.164062 C 806.550781 359.164062 807.003906 359.089844 807.449219 358.9375 C 807.890625 358.785156 808.300781 358.566406 808.667969 358.277344 C 809.039062 357.992188 809.355469 357.652344 809.613281 357.261719 C 809.867188 356.867188 810.054688 356.445312 810.171875 355.992188 C 816.8125 329.742188 824.351562 314.09375 848.976562 305.050781 C 849.382812 304.902344 849.757812 304.699219 850.101562 304.433594 C 850.445312 304.167969 850.738281 303.859375 850.988281 303.503906 C 851.238281 303.152344 851.425781 302.765625 851.554688 302.351562 C 851.6875 301.941406 851.75 301.515625 851.75 301.082031 C 851.75 300.648438 851.6875 300.226562 851.554688 299.8125 C 851.425781 299.402344 851.238281 299.015625 850.988281 298.660156 C 850.738281 298.304688 850.445312 297.996094 850.101562 297.734375 C 849.757812 297.46875 849.382812 297.261719 848.976562 297.113281 C 824.351562 288.082031 816.808594 272.433594 810.171875 246.175781 C 810.054688 245.722656 809.867188 245.296875 809.613281 244.90625 C 809.355469 244.515625 809.039062 244.175781 808.667969 243.886719 C 808.300781 243.601562 807.890625 243.382812 807.449219 243.230469 C 807.003906 243.078125 806.550781 243 806.082031 243 C 805.613281 243 805.15625 243.078125 804.710938 243.230469 C 804.269531 243.382812 803.863281 243.601562 803.492188 243.886719 C 803.121094 244.175781 802.804688 244.515625 802.550781 244.90625 C 802.292969 245.296875 802.105469 245.722656 801.988281 246.175781 C 795.339844 272.433594 787.808594 288.082031 763.1875 297.113281 C 762.777344 297.261719 762.402344 297.46875 762.058594 297.734375 C 761.714844 297.996094 761.421875 298.304688 761.171875 298.660156 C 760.925781 299.015625 760.734375 299.402344 760.605469 299.8125 C 760.472656 300.226562 760.410156 300.648438 760.410156 301.082031 C 760.410156 301.515625 760.472656 301.941406 760.605469 302.351562 C 760.734375 302.765625 760.925781 303.152344 761.171875 303.503906 C 761.421875 303.859375 761.714844 304.167969 762.058594 304.433594 C 762.402344 304.699219 762.777344 304.902344 763.1875 305.050781 Z M 768.855469 532.207031 C 783.382812 538.359375 788.910156 548.277344 793.257812 563.902344 C 793.382812 564.347656 793.574219 564.761719 793.832031 565.144531 C 794.089844 565.527344 794.40625 565.859375 794.773438 566.140625 C 795.140625 566.421875 795.542969 566.632812 795.980469 566.78125 C 796.417969 566.929688 796.871094 567.003906 797.332031 567.003906 C 797.792969 567.003906 798.246094 566.929688 798.683594 566.78125 C 799.121094 566.632812 799.523438 566.421875 799.890625 566.140625 C 800.257812 565.859375 800.574219 565.527344 800.832031 565.144531 C 801.089844 564.761719 801.28125 564.347656 801.40625 563.902344 C 805.753906 548.277344 811.273438 538.359375 825.808594 532.207031 C 826.191406 532.046875 826.539062 531.832031 826.859375 531.566406 C 827.175781 531.300781 827.449219 530.996094 827.679688 530.652344 C 827.90625 530.304688 828.082031 529.933594 828.199219 529.539062 C 828.320312 529.140625 828.378906 528.734375 828.378906 528.320312 C 828.378906 527.90625 828.320312 527.5 828.199219 527.105469 C 828.082031 526.707031 827.90625 526.335938 827.679688 525.988281 C 827.449219 525.644531 827.175781 525.339844 826.859375 525.074219 C 826.539062 524.808594 826.191406 524.59375 825.808594 524.433594 C 811.28125 518.285156 805.753906 508.363281 801.40625 492.738281 C 801.28125 492.292969 801.089844 491.878906 800.832031 491.496094 C 800.574219 491.113281 800.257812 490.78125 799.890625 490.5 C 799.523438 490.222656 799.121094 490.007812 798.683594 489.859375 C 798.246094 489.710938 797.792969 489.636719 797.332031 489.636719 C 796.871094 489.636719 796.417969 489.710938 795.980469 489.859375 C 795.542969 490.007812 795.140625 490.222656 794.773438 490.5 C 794.40625 490.78125 794.089844 491.113281 793.832031 491.496094 C 793.574219 491.878906 793.382812 492.292969 793.257812 492.738281 C 788.910156 508.363281 783.390625 518.285156 768.855469 524.433594 C 768.472656 524.59375 768.125 524.808594 767.804688 525.070312 C 767.484375 525.335938 767.210938 525.640625 766.984375 525.988281 C 766.753906 526.332031 766.578125 526.703125 766.460938 527.101562 C 766.339844 527.496094 766.277344 527.902344 766.2  77344 528.316406 C 766.277344 528.730469 766.335938 529.136719 766.453125 529.535156 C 766.574219 529.929688 766.746094 530.300781 766.976562 530.648438 C 767.203125 530.996094 767.476562 531.300781 767.792969 531.566406 C 768.113281 531.832031 768.460938 532.046875 768.84375 532.207031 Z M 768.855469 532.207031 " fill-opacity="1" fill-rule="nonzero"/></g></svg>