<svg xmlns="http://www.w3.org/2000/svg" width="100%" height="100%" viewBox="0 0 1512 982" preserveAspectRatio="xMidYMid slice" fill="none">
 <g filter="url(#filter0_f_33_290)">
<path d="M939 650.405C939 909.703 728.798 1119.91 469.5 1119.91C210.202 1119.91 0 909.703 0 650.405C0 391.108 210.202 180.905 469.5 180.905C728.798 180.905 939 391.108 939 650.405Z" fill="#A8DADC" opacity="0.7"/>
 <path d="M1512.03 908.035C1195.39 722.783 1023.9 248.444 1289.51 -4.60413C1528.62 -232.412 1922.97 -150.833 2127.62 108.382C2339.29 376.502 2326.96 846.012 2010.75 975.267C1828.84 1049.63 1681.66 1007.27 1512.03 908.035Z" fill="url(#paint0_radial_33_290)" opacity="0.8"/>
 </g>
<defs>
<filter id="filter0_f_33_290" x="-600" y="-737.905" width="3470.13" height="2457.81" filterUnits="userSpaceOnUse" color-interpolation-filters="sRGB">
 <feFlood flood-opacity="0" result="BackgroundImageFix"/>
<feBlend mode="normal" in="SourceGraphic" in2="BackgroundImageFix" result="shape"/>
<feGaussianBlur stdDeviation="150" result="effect1_foregroundBlur_33_290"/>
 </filter>
<radialGradient id="paint0_radial_33_290" cx="0" cy="0" r="1" gradientUnits="userSpaceOnUse" gradientTransform="translate(967.922 -211.152) rotate(76.533) scale(1443.86 2509.36)">
<stop offset="0.3" stop-color="#FBE2A1" stop-opacity="0.9"/>
<stop offset="0.5" stop-color="#FF9A42" stop-opacity="0.8"/>
<stop offset="1" stop-color="#457B9D" stop-opacity="0.7"/>
</radialGradient>
</defs>

</svg>