<svg xmlns="http://www.w3.org/2000/svg" xmlns:xlink="http://www.w3.org/1999/xlink" width="645" zoomAndPan="magnify" viewBox="0 0 483.75 292.499991" height="390" preserveAspectRatio="xMidYMid meet" version="1.0"><defs><g/><clipPath id="6fc16772e4"><path d="M 272.140625 23.457031 L 483.210938 23.457031 L 483.210938 140 L 272.140625 140 Z M 272.140625 23.457031 " clip-rule="nonzero"/></clipPath><clipPath id="f066b67ada"><path d="M 354 49.054688 L 401.320312 49.054688 L 401.320312 96 L 354 96 Z M 354 49.054688 " clip-rule="nonzero"/></clipPath><clipPath id="e5ca5496cb"><path d="M 329.441406 73 L 376 73 L 376 120.183594 L 329.441406 120.183594 Z M 329.441406 73 " clip-rule="nonzero"/></clipPath></defs><g fill="#1d3557" fill-opacity="1"><g transform="translate(31.73377, 129.527975)"><g><path d="M 34.171875 1.46875 C 28.296875 1.46875 23.085938 0.226562 18.546875 -2.25 C 14.003906 -4.726562 10.457031 -8.148438 7.90625 -12.515625 C 5.363281 -16.890625 4.09375 -21.90625 4.09375 -27.5625 C 4.09375 -33.226562 5.363281 -38.222656 7.90625 -42.546875 C 10.457031 -46.878906 14.003906 -50.285156 18.546875 -52.765625 C 23.085938 -55.253906 28.296875 -56.5 34.171875 -56.5 C 39.265625 -56.5 43.890625 -55.570312 48.046875 -53.71875 C 52.210938 -51.863281 55.65625 -49.238281 58.375 -45.84375 C 61.101562 -42.457031 62.882812 -38.492188 63.71875 -33.953125 L 48.421875 -33.953125 C 47.097656 -36.753906 45.210938 -38.941406 42.765625 -40.515625 C 40.316406 -42.085938 37.519531 -42.875 34.375 -42.875 C 30.113281 -42.875 26.617188 -41.457031 23.890625 -38.625 C 21.171875 -35.789062 19.8125 -32.101562 19.8125 -27.5625 C 19.8125 -23.09375 21.171875 -19.425781 23.890625 -16.5625 C 26.617188 -13.695312 30.113281 -12.265625 34.375 -12.265625 C 37.726562 -12.265625 40.679688 -13.15625 43.234375 -14.9375 C 45.785156 -16.71875 47.617188 -19.109375 48.734375 -22.109375 L 64.25 -22.109375 C 63.269531 -17.296875 61.398438 -13.125 58.640625 -9.59375 C 55.878906 -6.0625 52.398438 -3.332031 48.203125 -1.40625 C 44.015625 0.507812 39.335938 1.46875 34.171875 1.46875 Z M 34.171875 1.46875 "/></g></g></g><g fill="#1d3557" fill-opacity="1"><g transform="translate(95.666914, 129.527975)"><g><path d="M 7.96875 0 L 7.96875 -77.5625 L 23.890625 -77.5625 L 23.890625 -50.828125 C 25.992188 -52.710938 28.441406 -54.128906 31.234375 -55.078125 C 34.023438 -56.023438 36.957031 -56.5 40.03125 -56.5 C 47.164062 -56.5 52.757812 -54.296875 56.8125 -49.890625 C 60.863281 -45.484375 62.890625 -39.441406 62.890625 -31.765625 L 62.890625 0 L 46.953125 0 L 46.953125 -30.1875 C 46.953125 -34.238281 45.988281 -37.363281 44.0625 -39.5625 C 42.144531 -41.769531 39.476562 -42.875 36.0625 -42.875 C 32.425781 -42.875 29.488281 -41.628906 27.25 -39.140625 C 25.007812 -36.660156 23.890625 -33.253906 23.890625 -28.921875 L 23.890625 0 Z M 7.96875 0 "/></g></g></g><g fill="#1d3557" fill-opacity="1"><g transform="translate(161.277002, 129.527975)"><g><path d="M 7.96875 0 L 7.96875 -55.03125 L 23.890625 -55.03125 L 23.890625 0 Z M 5.65625 -72.84375 C 5.65625 -75.78125 6.613281 -78.171875 8.53125 -80.015625 C 10.457031 -81.867188 12.925781 -82.796875 15.9375 -82.796875 C 19.007812 -82.796875 21.488281 -81.867188 23.375 -80.015625 C 25.257812 -78.171875 26.203125 -75.78125 26.203125 -72.84375 C 26.203125 -69.90625 25.257812 -67.507812 23.375 -65.65625 C 21.488281 -63.8125 19.007812 -62.890625 15.9375 -62.890625 C 12.925781 -62.890625 10.457031 -63.8125 8.53125 -65.65625 C 6.613281 -67.507812 5.65625 -69.90625 5.65625 -72.84375 Z M 5.65625 -72.84375 "/></g></g></g><g fill="#1d3557" fill-opacity="1"><g transform="translate(188.946206, 129.527975)"><g><path d="M 34.484375 0 C 27.492188 0 22.128906 -1.796875 18.390625 -5.390625 C 14.648438 -8.992188 12.78125 -14.148438 12.78125 -20.859375 L 12.78125 -42.03125 L 2.09375 -42.03125 L 2.09375 -55.03125 L 7.015625 -55.03125 C 10.023438 -55.03125 12.070312 -55.519531 13.15625 -56.5 C 14.238281 -57.476562 14.988281 -59.363281 15.40625 -62.15625 L 16.34375 -69.28125 L 28.71875 -69.28125 L 28.71875 -55.03125 L 43.8125 -55.03125 L 43.8125 -42.03125 L 28.71875 -42.03125 L 28.71875 -23.265625 C 28.71875 -16.972656 31.789062 -13.828125 37.9375 -13.828125 L 44.546875 -13.828125 L 44.546875 0 Z M 34.484375 0 "/></g></g></g><g fill="#1d3557" fill-opacity="1"><g transform="translate(233.701013, 129.527975)"><g/></g></g><g fill="#1d3557" fill-opacity="1"><g transform="translate(31.73377, 233.600067)"><g><path d="M 34.171875 1.46875 C 28.296875 1.46875 23.085938 0.226562 18.546875 -2.25 C 14.003906 -4.726562 10.457031 -8.148438 7.90625 -12.515625 C 5.363281 -16.890625 4.09375 -21.90625 4.09375 -27.5625 C 4.09375 -33.226562 5.363281 -38.222656 7.90625 -42.546875 C 10.457031 -46.878906 14.003906 -50.285156 18.546875 -52.765625 C 23.085938 -55.253906 28.296875 -56.5 34.171875 -56.5 C 39.265625 -56.5 43.890625 -55.570312 48.046875 -53.71875 C 52.210938 -51.863281 55.65625 -49.238281 58.375 -45.84375 C 61.101562 -42.457031 62.882812 -38.492188 63.71875 -33.953125 L 48.421875 -33.953125 C 47.097656 -36.753906 45.210938 -38.941406 42.765625 -40.515625 C 40.316406 -42.085938 37.519531 -42.875 34.375 -42.875 C 30.113281 -42.875 26.617188 -41.457031 23.890625 -38.625 C 21.171875 -35.789062 19.8125 -32.101562 19.8125 -27.5625 C 19.8125 -23.09375 21.171875 -19.425781 23.890625 -16.5625 C 26.617188 -13.695312 30.113281 -12.265625 34.375 -12.265625 C 37.726562 -12.265625 40.679688 -13.15625 43.234375 -14.9375 C 45.785156 -16.71875 47.617188 -19.109375 48.734375 -22.109375 L 64.25 -22.109375 C 63.269531 -17.296875 61.398438 -13.125 58.640625 -9.59375 C 55.878906 -6.0625 52.398438 -3.332031 48.203125 -1.40625 C 44.015625 0.507812 39.335938 1.46875 34.171875 1.46875 Z M 34.171875 1.46875 "/></g></g></g><g fill="#1d3557" fill-opacity="1"><g transform="translate(95.666914, 233.600067)"><g><path d="M 7.96875 0 L 7.96875 -77.5625 L 23.890625 -77.5625 L 23.890625 -50.828125 C 25.992188 -52.710938 28.441406 -54.128906 31.234375 -55.078125 C 34.023438 -56.023438 36.957031 -56.5 40.03125 -56.5 C 47.164062 -56.5 52.757812 -54.296875 56.8125 -49.890625 C 60.863281 -45.484375 62.890625 -39.441406 62.890625 -31.765625 L 62.890625 0 L 46.953125 0 L 46.953125 -30.1875 C 46.953125 -34.238281 45.988281 -37.363281 44.0625 -39.5625 C 42.144531 -41.769531 39.476562 -42.875 36.0625 -42.875 C 32.425781 -42.875 29.488281 -41.628906 27.25 -39.140625 C 25.007812 -36.660156 23.890625 -33.253906 23.890625 -28.921875 L 23.890625 0 Z M 7.96875 0 "/></g></g></g><g fill="#1d3557" fill-opacity="1"><g transform="translate(161.277002, 233.600067)"><g><path d="M 26.3125 1.046875 C 19.8125 1.046875 14.671875 -0.472656 10.890625 -3.515625 C 7.117188 -6.554688 5.234375 -10.726562 5.234375 -16.03125 C 5.234375 -21.132812 6.925781 -25.207031 10.3125 -28.25 C 13.707031 -31.289062 18.269531 -32.8125 24 -32.8125 L 43.921875 -32.8125 L 43.921875 -35.328125 C 43.921875 -38.046875 42.941406 -40.222656 40.984375 -41.859375 C 39.023438 -43.503906 36.472656 -44.328125 33.328125 -44.328125 C 30.742188 -44.328125 28.539062 -43.734375 26.71875 -42.546875 C 24.90625 -41.359375 23.753906 -39.789062 23.265625 -37.84375 L 7.96875 -37.84375 C 8.945312 -43.84375 11.65625 -48.453125 16.09375 -51.671875 C 20.53125 -54.890625 26.238281 -56.5 33.21875 -56.5 C 41.46875 -56.5 47.914062 -54.414062 52.5625 -50.25 C 57.207031 -46.09375 59.53125 -40.382812 59.53125 -33.125 L 59.53125 0 L 47.6875 0 L 45.90625 -6.390625 C 41.082031 -1.429688 34.550781 1.046875 26.3125 1.046875 Z M 20.96875 -16.671875 C 20.96875 -14.773438 21.785156 -13.25 23.421875 -12.09375 C 25.066406 -10.945312 27.25 -10.375 29.96875 -10.375 C 33.957031 -10.375 37.257812 -11.523438 39.875 -13.828125 C 42.5 -16.140625 43.878906 -19.144531 44.015625 -22.84375 L 28.921875 -22.84375 C 26.546875 -22.84375 24.625 -22.285156 23.15625 -21.171875 C 21.695312 -20.054688 20.96875 -18.554688 20.96875 -16.671875 Z M 20.96875 -16.671875 "/></g></g></g><g fill="#1d3557" fill-opacity="1"><g transform="translate(223.533198, 233.600067)"><g><path d="M 7.96875 0 L 7.96875 -55.03125 L 19.8125 -55.03125 L 21.90625 -47.6875 C 23.71875 -50.269531 25.953125 -52.140625 28.609375 -53.296875 C 31.265625 -54.453125 34.617188 -55.03125 38.671875 -55.03125 L 44.65625 -55.03125 L 44.65625 -40.5625 L 38.578125 -40.5625 C 34.035156 -40.5625 30.453125 -39.335938 27.828125 -36.890625 C 25.203125 -34.441406 23.890625 -30.25 23.890625 -24.3125 L 23.890625 0 Z M 7.96875 0 "/></g></g></g><g fill="#1d3557" fill-opacity="1"><g transform="translate(267.552606, 233.600067)"><g><path d="M 34.484375 0 C 27.492188 0 22.128906 -1.796875 18.390625 -5.390625 C 14.648438 -8.992188 12.78125 -14.148438 12.78125 -20.859375 L 12.78125 -42.03125 L 2.09375 -42.03125 L 2.09375 -55.03125 L 7.015625 -55.03125 C 10.023438 -55.03125 12.070312 -55.519531 13.15625 -56.5 C 14.238281 -57.476562 14.988281 -59.363281 15.40625 -62.15625 L 16.34375 -69.28125 L 28.71875 -69.28125 L 28.71875 -55.03125 L 43.8125 -55.03125 L 43.8125 -42.03125 L 28.71875 -42.03125 L 28.71875 -23.265625 C 28.71875 -16.972656 31.789062 -13.828125 37.9375 -13.828125 L 44.546875 -13.828125 L 44.546875 0 Z M 34.484375 0 "/></g></g></g><g clip-path="url(#6fc16772e4)"><path fill="#1d3557" d="M 464.101562 109.429688 C 464.101562 98.089844 464.101562 88.394531 464.101562 81.960938 L 464.101562 73.632812 L 463.640625 73.902344 C 460.125 45.675781 436.0625 23.828125 406.886719 23.828125 L 329.355469 23.476562 C 297.757812 23.476562 272.140625 49.09375 272.140625 80.691406 L 272.140625 81.609375 C 272.140625 113.207031 297.757812 138.824219 329.355469 138.824219 L 406.886719 139.179688 C 420.632812 139.179688 433.246094 134.328125 443.113281 126.246094 L 443.113281 126.25 C 443.113281 126.25 460.59375 145.972656 483.113281 137.023438 C 483.113281 137.023438 464.101562 130.011719 464.101562 109.429688 Z M 464.101562 109.429688 " fill-opacity="1" fill-rule="nonzero"/></g><g clip-path="url(#f066b67ada)"><path fill="#ffffff" d="M 401.027344 84.792969 C 401.027344 90.722656 396.226562 95.523438 390.296875 95.523438 L 368.320312 95.523438 C 360.726562 95.523438 354.558594 89.355469 354.558594 81.757812 L 354.558594 59.78125 C 354.558594 53.851562 359.355469 49.054688 365.285156 49.054688 C 371.21875 49.054688 376.015625 53.851562 376.015625 59.78125 L 376.015625 74.0625 L 390.296875 74.0625 C 396.226562 74.0625 401.027344 78.882812 401.027344 84.792969 Z M 401.027344 84.792969 " fill-opacity="1" fill-rule="nonzero"/></g><g clip-path="url(#e5ca5496cb)"><path fill="#ff9a42" d="M 329.46875 84.652344 C 329.46875 78.722656 334.269531 73.921875 340.199219 73.921875 L 362.171875 73.921875 C 369.769531 73.921875 375.9375 80.09375 375.9375 87.6875 L 375.9375 109.664062 C 375.9375 115.59375 371.136719 120.390625 365.207031 120.390625 C 359.277344 120.390625 354.476562 115.59375 354.476562 109.664062 L 354.476562 95.382812 L 340.199219 95.382812 C 334.269531 95.382812 329.46875 90.582031 329.46875 84.652344 Z M 329.46875 84.652344 " fill-opacity="1" fill-rule="nonzero"/></g><path fill="#ff9a42" d="M 375.9375 87.6875 L 375.9375 95.523438 L 368.320312 95.523438 C 360.726562 95.523438 354.558594 89.355469 354.558594 81.757812 L 354.558594 73.921875 L 362.171875 73.921875 C 369.769531 73.921875 375.9375 80.09375 375.9375 87.6875 Z M 375.9375 87.6875 " fill-opacity="1" fill-rule="nonzero"/></svg>