<svg xmlns="http://www.w3.org/2000/svg" xmlns:xlink="http://www.w3.org/1999/xlink" width="282" zoomAndPan="magnify" viewBox="0 0 211.5 123.000003" height="164" preserveAspectRatio="xMidYMid meet" version="1.0"><defs><clipPath id="46193aba4c"><path d="M 0.605469 0 L 210.398438 0 L 210.398438 116 L 0.605469 116 Z M 0.605469 0 " clip-rule="nonzero"/></clipPath><clipPath id="f6367f6198"><path d="M 82 25.433594 L 128.960938 25.433594 L 128.960938 72 L 82 72 Z M 82 25.433594 " clip-rule="nonzero"/></clipPath><clipPath id="f47162d6b0"><path d="M 57.542969 50 L 104 50 L 104 96.109375 L 57.542969 96.109375 Z M 57.542969 50 " clip-rule="nonzero"/></clipPath></defs><g clip-path="url(#46193aba4c)"><path fill="#1d3557" d="M 191.34375 85.425781 C 191.34375 74.15625 191.34375 64.527344 191.34375 58.132812 L 191.34375 49.859375 L 190.886719 50.125 C 187.390625 22.078125 163.484375 0.371094 134.492188 0.371094 L 57.457031 0.0195312 C 26.058594 0.0195312 0.605469 25.472656 0.605469 56.871094 L 0.605469 57.78125 C 0.605469 89.179688 26.058594 114.632812 57.457031 114.632812 L 134.492188 114.984375 C 148.152344 114.984375 160.683594 110.164062 170.488281 102.136719 L 170.488281 102.140625 C 170.488281 102.140625 187.855469 121.738281 210.234375 112.84375 C 210.234375 112.84375 191.34375 105.878906 191.34375 85.425781 Z M 191.34375 85.425781 " fill-opacity="1" fill-rule="nonzero"/></g><g clip-path="url(#f6367f6198)"><path fill="#ffffff" d="M 128.667969 60.945312 C 128.667969 66.835938 123.902344 71.605469 118.007812 71.605469 L 96.171875 71.605469 C 88.625 71.605469 82.496094 65.476562 82.496094 57.929688 L 82.496094 36.09375 C 82.496094 30.203125 87.265625 25.433594 93.160156 25.433594 C 99.050781 25.433594 103.820312 30.203125 103.820312 36.09375 L 103.820312 50.285156 L 118.007812 50.285156 C 123.902344 50.285156 128.667969 55.074219 128.667969 60.945312 Z M 128.667969 60.945312 " fill-opacity="1" fill-rule="nonzero"/></g><g clip-path="url(#f47162d6b0)"><path fill="#ff9a42" d="M 57.566406 60.808594 C 57.566406 54.914062 62.335938 50.144531 68.230469 50.144531 L 90.0625 50.144531 C 97.613281 50.144531 103.742188 56.273438 103.742188 63.824219 L 103.742188 85.65625 C 103.742188 91.550781 98.972656 96.320312 93.078125 96.320312 C 87.1875 96.320312 82.417969 91.550781 82.417969 85.65625 L 82.417969 71.46875 L 68.230469 71.46875 C 62.335938 71.46875 57.566406 66.699219 57.566406 60.808594 Z M 57.566406 60.808594 " fill-opacity="1" fill-rule="nonzero"/></g><path fill="#ff9a42" d="M 103.742188 63.824219 L 103.742188 71.605469 L 96.171875 71.605469 C 88.625 71.605469 82.496094 65.476562 82.496094 57.929688 L 82.496094 50.144531 L 90.0625 50.144531 C 97.613281 50.144531 103.742188 56.273438 103.742188 63.824219 Z M 103.742188 63.824219 " fill-opacity="1" fill-rule="nonzero"/></svg>